<svg xmlns="http://www.w3.org/2000/svg" xmlns:xlink="http://www.w3.org/1999/xlink" contentStyleType="text/css" data-diagram-type="CLASS" height="305px"  style="width:562px;height:305px;background:#FFFFFF;" version="1.1" viewBox="0 0 562 305" width="562px" zoomAndPan="magnify"><title>Class Diagram for Storage Service in Automated Cloakroom System</title><defs/><g><text fill="#000000" font-family="sans-serif" font-size="14" font-weight="bold" lengthAdjust="spacing" textLength="534.7002" x="10" y="22.9951">Class Diagram for Storage Service in Automated Cloakroom System</text><!--class StorageService--><g id="elem_StorageService"><rect codeLine="3" fill="#F1F1F1" height="96.8906" id="StorageService" rx="2.5" ry="2.5" style="stroke:#181818;stroke-width:0.5;" width="225.5" x="144.9851" y="44.2969"/><ellipse cx="200.2263" cy="60.2969" fill="#ADD1B2" rx="11" ry="11" style="stroke:#181818;stroke-width:1;"/><path d="M203.195,65.9375 Q202.6169,66.2344 201.9763,66.375 Q201.3357,66.5313 200.6325,66.5313 Q198.1325,66.5313 196.8044,64.8906 Q195.4919,63.2344 195.4919,60.1094 Q195.4919,56.9844 196.8044,55.3281 Q198.1325,53.6719 200.6325,53.6719 Q201.3357,53.6719 201.9763,53.8281 Q202.6325,53.9844 203.195,54.2813 L203.195,57 Q202.57,56.4219 201.9763,56.1563 Q201.3825,55.875 200.7575,55.875 Q199.4138,55.875 198.7263,56.9531 Q198.0388,58.0156 198.0388,60.1094 Q198.0388,62.2031 198.7263,63.2813 Q199.4138,64.3438 200.7575,64.3438 Q201.3825,64.3438 201.9763,64.0781 Q202.57,63.7969 203.195,63.2188 L203.195,65.9375 Z " fill="#000000"/><text fill="#000000" font-family="sans-serif" font-size="14" lengthAdjust="spacing" textLength="106.5176" x="220.7263" y="65.1436">StorageService</text><line style="stroke:#181818;stroke-width:0.5;" x1="145.9851" x2="369.4851" y1="76.2969" y2="76.2969"/><line style="stroke:#181818;stroke-width:0.5;" x1="145.9851" x2="369.4851" y1="84.2969" y2="84.2969"/><ellipse cx="155.9851" cy="97.9453" fill="#84BE84" rx="3" ry="3" style="stroke:#038048;stroke-width:1;"/><text fill="#000000" font-family="sans-serif" font-size="14" lengthAdjust="spacing" textLength="174.5283" x="164.9851" y="101.292">allocateStorage(request)</text><ellipse cx="155.9851" cy="114.2422" fill="#84BE84" rx="3" ry="3" style="stroke:#038048;stroke-width:1;"/><text fill="#000000" font-family="sans-serif" font-size="14" lengthAdjust="spacing" textLength="170.584" x="164.9851" y="117.5889">releaseStorage(request)</text><ellipse cx="155.9851" cy="130.5391" fill="#84BE84" rx="3" ry="3" style="stroke:#038048;stroke-width:1;"/><text fill="#000000" font-family="sans-serif" font-size="14" lengthAdjust="spacing" textLength="199.5" x="164.9851" y="133.8857">getStorageStatus(storageId)</text></g><!--class StorageRepository--><g id="elem_StorageRepository"><rect codeLine="9" fill="#F1F1F1" height="96.8906" id="StorageRepository" rx="2.5" ry="2.5" style="stroke:#181818;stroke-width:0.5;" width="161.8486" x="52.8151" y="201.1869"/><ellipse cx="67.8151" cy="217.1869" fill="#ADD1B2" rx="11" ry="11" style="stroke:#181818;stroke-width:1;"/><path d="M70.7838,222.8275 Q70.2057,223.1244 69.5651,223.265 Q68.9245,223.4213 68.2213,223.4213 Q65.7213,223.4213 64.3932,221.7806 Q63.0807,220.1244 63.0807,216.9994 Q63.0807,213.8744 64.3932,212.2181 Q65.7213,210.5619 68.2213,210.5619 Q68.9245,210.5619 69.5651,210.7181 Q70.2213,210.8744 70.7838,211.1713 L70.7838,213.89 Q70.1588,213.3119 69.5651,213.0463 Q68.9713,212.765 68.3463,212.765 Q67.0026,212.765 66.3151,213.8431 Q65.6276,214.9056 65.6276,216.9994 Q65.6276,219.0931 66.3151,220.1713 Q67.0026,221.2338 68.3463,221.2338 Q68.9713,221.2338 69.5651,220.9681 Q70.1588,220.6869 70.7838,220.1088 L70.7838,222.8275 Z " fill="#000000"/><text fill="#000000" font-family="sans-serif" font-size="14" lengthAdjust="spacing" textLength="129.8486" x="81.8151" y="222.0336">StorageRepository</text><line style="stroke:#181818;stroke-width:0.5;" x1="53.8151" x2="213.6637" y1="233.1869" y2="233.1869"/><line style="stroke:#181818;stroke-width:0.5;" x1="53.8151" x2="213.6637" y1="241.1869" y2="241.1869"/><ellipse cx="63.8151" cy="254.8353" fill="#84BE84" rx="3" ry="3" style="stroke:#038048;stroke-width:1;"/><text fill="#000000" font-family="sans-serif" font-size="14" lengthAdjust="spacing" textLength="96.8789" x="72.8151" y="258.182">save(storage)</text><ellipse cx="63.8151" cy="271.1322" fill="#84BE84" rx="3" ry="3" style="stroke:#038048;stroke-width:1;"/><text fill="#000000" font-family="sans-serif" font-size="14" lengthAdjust="spacing" textLength="134.6064" x="72.8151" y="274.4789">findById(storageId)</text><ellipse cx="63.8151" cy="287.4291" fill="#84BE84" rx="3" ry="3" style="stroke:#038048;stroke-width:1;"/><text fill="#000000" font-family="sans-serif" font-size="14" lengthAdjust="spacing" textLength="113.4355" x="72.8151" y="290.7757">update(storage)</text></g><!--class NotificationService--><g id="elem_NotificationService"><rect codeLine="15" fill="#F1F1F1" height="64.2969" id="NotificationService" rx="2.5" ry="2.5" style="stroke:#181818;stroke-width:0.5;" width="266.29" x="249.5951" y="217.4869"/><ellipse cx="312.4549" cy="233.4869" fill="#ADD1B2" rx="11" ry="11" style="stroke:#181818;stroke-width:1;"/><path d="M315.4237,239.1275 Q314.8456,239.4244 314.2049,239.565 Q313.5643,239.7213 312.8612,239.7213 Q310.3612,239.7213 309.0331,238.0806 Q307.7206,236.4244 307.7206,233.2994 Q307.7206,230.1744 309.0331,228.5181 Q310.3612,226.8619 312.8612,226.8619 Q313.5643,226.8619 314.2049,227.0181 Q314.8612,227.1744 315.4237,227.4713 L315.4237,230.19 Q314.7987,229.6119 314.2049,229.3463 Q313.6112,229.065 312.9862,229.065 Q311.6424,229.065 310.9549,230.1431 Q310.2674,231.2056 310.2674,233.2994 Q310.2674,235.3931 310.9549,236.4713 Q311.6424,237.5338 312.9862,237.5338 Q313.6112,237.5338 314.2049,237.2681 Q314.7987,236.9869 315.4237,236.4088 L315.4237,239.1275 Z " fill="#000000"/><text fill="#000000" font-family="sans-serif" font-size="14" lengthAdjust="spacing" textLength="132.0703" x="332.9549" y="238.3336">NotificationService</text><line style="stroke:#181818;stroke-width:0.5;" x1="250.5951" x2="514.8851" y1="249.4869" y2="249.4869"/><line style="stroke:#181818;stroke-width:0.5;" x1="250.5951" x2="514.8851" y1="257.4869" y2="257.4869"/><ellipse cx="260.5951" cy="271.1353" fill="#84BE84" rx="3" ry="3" style="stroke:#038048;stroke-width:1;"/><text fill="#000000" font-family="sans-serif" font-size="14" lengthAdjust="spacing" textLength="240.29" x="269.5951" y="274.482">sendNotification(userId, message)</text></g><!--link StorageService to StorageRepository--><g id="link_StorageService_StorageRepository"><path codeLine="19" d="M219.5251,141.4769 C204.4351,160.3169 190.8836,177.2419 175.7936,196.1019 " fill="none" id="StorageService-to-StorageRepository" style="stroke:#181818;stroke-width:1;"/><polygon fill="#181818" points="172.0451,200.7869,180.7911,196.2584,175.1688,196.8827,174.5445,191.2604,172.0451,200.7869" style="stroke:#181818;stroke-width:1;"/></g><!--link StorageService to NotificationService--><g id="link_StorageService_NotificationService"><path codeLine="20" d="M296.2651,141.4769 C316.2051,166.1869 336.2168,190.9878 353.7868,212.7578 " fill="none" id="StorageService-to-NotificationService" style="stroke:#181818;stroke-width:1;"/><polygon fill="#181818" points="357.5551,217.4269,355.0154,207.9111,354.4148,213.536,348.79,212.9355,357.5551,217.4269" style="stroke:#181818;stroke-width:1;"/></g><!--SRC=[TP11Zi8m34NtFOMNHGDNG9ePDjsme2Um6hUo9gaXTf0gD7UV21f07SWgqVT__pl6vWc-FQh2Zd686A2N2Ar9n86WfNZcZe17-4mc0OrS7XVyYI81sacDGbLrLy1iAfvB1VbyeFVIPT-irf5EYTHMDpMI9zGtua1Mc8QMjDRRgt6hwdUHUg2ZAEVxL88LprGSCx3dqNrDZNi6NOLqTBdYO_fEtujnpxa_oxXOJ6bqptATb6BZrX18jL0MVxBPRFyNVZNq8lSF]--></g></svg>